<svg width="1583.9999999999998" height="395.99999999999994" xmlns="http://www.w3.org/2000/svg" fill="none">

 <g>
  <title>Layer 1</title>
  <path id="svg_1" fill="white" d="m1.0782,69.24999c0.1875,-0.6563 0.35937,-1.4687 0.51562,-2.4375c0.1875,-0.9688 0.34375,-2.1719 0.46875,-3.6094c0.125,-1.4375 0.21875,-3.1406 0.28125,-5.1094c0.0625,-2 0.09375,-4.3281 0.09375,-6.9843l0,-30.5157c0,-2.6562 -0.03125,-4.9687 -0.09375,-6.9374c-0.0625,-2.0001 -0.15625,-3.7188 -0.28125,-5.1563c-0.125,-1.46875 -0.28125,-2.6875 -0.46875,-3.65625c-0.15625,-0.96875 -0.32812,-1.78125 -0.51562,-2.4375l0,-0.1875l11.24997,0l0,0.1875c-0.1875,0.65625 -0.375,1.46875 -0.5625,2.4375c-0.1562,0.96875 -0.2968,2.1875 -0.4218,3.65625c-0.0938,1.4375 -0.1876,3.1562 -0.2813,5.1563c-0.0625,1.9687 -0.0937,4.2812 -0.0937,6.9374l0,10.4532l27.375,-22.3594c3.0624,-2.5 4.5937,-4.65625 4.5937,-6.46875l13.1719,0l0,0.1875c-1.8438,0.4375 -3.7188,1.28125 -5.625,2.53125c-1.875,1.21875 -3.875,2.71875 -6,4.5l-24.1875,20.25l29.1093,31.9688c1.2188,1.25 2.25,2.2968 3.0938,3.1406c0.875,0.8125 1.6406,1.5 2.2969,2.0625c0.6562,0.5312 1.25,0.9843 1.7812,1.3593c0.5625,0.3438 1.1407,0.6876 1.7344,1.0313l0,0.1875l-13.7344,0c-0.125,-0.2812 -0.3437,-0.6406 -0.6562,-1.0781c-0.2813,-0.4375 -0.625,-0.8907 -1.0313,-1.3594c-0.375,-0.4687 -0.7968,-0.9531 -1.2656,-1.4531c-0.4375,-0.5 -0.8594,-0.9688 -1.2656,-1.4063l-29.3906,-32.25l0,19.2188c0,2.6562 0.0312,4.9843 0.0937,6.9843c0.0937,1.9688 0.1875,3.6719 0.2813,5.1094c0.125,1.4375 0.2656,2.6406 0.4218,3.6094c0.1875,0.9688 0.375,1.7812 0.5625,2.4375l0,0.1875l-11.24997,0l0,-0.1875zm79.08747,-67.03125l48.2814,51.37495l0,-33c0,-2.6562 -0.031,-4.9687 -0.094,-6.9374c-0.062,-2.0001 -0.156,-3.7188 -0.281,-5.1563c-0.125,-1.46875 -0.281,-2.6875 -0.469,-3.65625c-0.156,-0.96875 -0.328,-1.78125 -0.515,-2.4375l0,-0.1875l8.343,0l0,0.1875c-0.187,0.65625 -0.359,1.46875 -0.515,2.4375c-0.157,0.96875 -0.297,2.1875 -0.422,3.65625c-0.125,1.4375 -0.219,3.1562 -0.281,5.1563c-0.063,1.9687 -0.094,4.2812 -0.094,6.9374l0,49.7813l-1.641,0l-48.2811,-51.3281l0,32.0625c0,2.6562 0.0312,4.9843 0.0937,6.9843c0.0625,1.9688 0.1563,3.6719 0.2813,5.1094c0.125,1.4375 0.2656,2.6406 0.4219,3.6094c0.1562,0.9688 0.3281,1.7812 0.5156,2.4375l0,0.1875l-8.3438,0l0,-0.1875c0.1875,-0.6563 0.3594,-1.4687 0.5157,-2.4375c0.1875,-0.9688 0.3437,-2.1719 0.4687,-3.6094c0.125,-1.4375 0.2188,-3.1406 0.2813,-5.1094c0.0625,-2 0.0937,-4.3281 0.0937,-6.9843l0,-30.5157c0,-2.6562 -0.0312,-4.9687 -0.0937,-6.9374c-0.0625,-2.0001 -0.1563,-3.7188 -0.2813,-5.1563c-0.125,-1.46875 -0.2812,-2.6875 -0.4687,-3.65625c-0.1563,-0.96875 -0.3282,-1.78125 -0.5157,-2.4375l0,-0.1875l3,0zm113.4004,-1.125c5.218,0 10.031,0.85937 14.437,2.57813c4.438,1.6875 8.266,4.07812 11.485,7.17182c3.218,3.0625 5.734,6.75 7.546,11.0626c1.813,4.3124 2.719,9.0781 2.719,14.2968c0,2.9688 -0.344,5.8906 -1.031,8.7656c-0.688,2.875 -1.703,5.5938 -3.047,8.1563c-1.312,2.5625 -2.937,4.9375 -4.875,7.125c-1.937,2.1563 -4.156,4.0313 -6.656,5.625c-2.469,1.5625 -5.203,2.7813 -8.203,3.6563c-3,0.9062 -6.235,1.3593 -9.703,1.3593c-5.219,0 -10.047,-0.8281 -14.485,-2.4843c-4.406,-1.6876 -8.219,-4.0626 -11.437,-7.125c-3.219,-3.0626 -5.735,-6.7344 -7.547,-11.0157c-1.813,-4.3125 -2.719,-9.0937 -2.719,-14.3437c0,-2.9688 0.344,-5.8906 1.031,-8.7656c0.688,-2.875 1.688,-5.6094 3,-8.2032c1.344,-2.5937 2.969,-4.9687 4.875,-7.125c1.938,-2.18748 4.141,-4.0781 6.61,-5.67185c2.5,-1.59375 5.25,-2.82812 8.25,-3.70313c3.031,-0.90624 6.281,-1.35937 9.75,-1.35937zm2.672,65.57815c3.468,0 6.64,-0.625 9.515,-1.875c2.875,-1.25 5.344,-3.0625 7.406,-5.4375c2.094,-2.375 3.719,-5.2657 4.875,-8.6719c1.157,-3.4375 1.735,-7.3281 1.735,-11.6719c0,-4.8125 -0.563,-9.2656 -1.688,-13.3593c-1.093,-4.125 -2.734,-7.6876 -4.922,-10.6876c-2.187,-3.0312 -4.921,-5.39058 -8.203,-7.07808c-3.25,-1.71875 -7.047,-2.57812 -11.39,-2.57812c-3.469,0 -6.641,0.625 -9.516,1.875c-2.875,1.21875 -5.359,3 -7.453,5.3438c-2.063,2.3437 -3.672,5.2187 -4.828,8.625c-1.156,3.4062 -1.735,7.2812 -1.735,11.625c0,4.7812 0.547,9.25 1.641,13.4062c1.094,4.125 2.734,7.7031 4.922,10.7344c2.187,3.0312 4.922,5.4218 8.203,7.1718c3.281,1.7188 7.094,2.5782 11.438,2.5782zm81.618,-26.625l-16.594,21.0468c-0.625,0.75 -1.234,1.5313 -1.828,2.3438c-0.593,0.7812 -1.125,1.5469 -1.593,2.2969c-0.469,0.75 -0.86,1.4531 -1.172,2.1093c-0.282,0.625 -0.422,1.1563 -0.422,1.5938l-9.094,0l0,-0.1875c0.688,-0.5937 1.656,-1.5 2.906,-2.7187c1.282,-1.2188 2.641,-2.75 4.078,-4.5938l20.625,-25.9219l-21.187,-27.84372c-1.156,-1.5 -2.297,-2.75001 -3.422,-3.75c-1.125,-1.03126 -1.969,-1.70313 -2.531,-2.01563l0,-0.1875l14.672,0c0,0.375 0.047,0.85937 0.14,1.45313c0.125,0.59375 0.344,1.29687 0.657,2.10937c0.312,0.78125 0.734,1.65625 1.265,2.625c0.563,0.96875 1.281,2.01563 2.156,3.14065l13.547,17.7656l14.953,-18.7031c0.563,-0.68753 1.11,-1.43753 1.641,-2.25002c0.563,-0.8125 1.047,-1.59376 1.453,-2.34376c0.438,-0.78125 0.781,-1.5 1.031,-2.15624c0.282,-0.65626 0.422,-1.20313 0.422,-1.64063l9.094,0l0,0.1875c-0.312,0.25 -0.656,0.54688 -1.031,0.89063c-0.375,0.34374 -0.813,0.76562 -1.313,1.26562c-0.468,0.5 -1,1.09375 -1.593,1.78125c-0.594,0.6875 -1.266,1.5 -2.016,2.4375l-19.547,24.65625l21.844,28.5938c1.5,1.9374 2.89,3.5468 4.172,4.8281c1.312,1.25 2.265,2.0469 2.859,2.3906l0,0.1875l-14.578,0c0,-0.7188 -0.297,-1.9062 -0.891,-3.5625c-0.593,-1.6563 -1.703,-3.5781 -3.328,-5.7656l-15.375,-20.0625zm54.432,25.2656c0,-0.6875 0.125,-1.3281 0.375,-1.9219c0.281,-0.625 0.64,-1.1562 1.078,-1.5937c0.468,-0.4688 1,-0.8282 1.593,-1.0782c0.625,-0.2812 1.282,-0.4218 1.969,-0.4218c0.719,0 1.375,0.1406 1.969,0.4218c0.625,0.25 1.156,0.6094 1.594,1.0782c0.468,0.4375 0.828,0.9687 1.078,1.5937c0.281,0.5938 0.422,1.2344 0.422,1.9219c0,1.4375 -0.485,2.6406 -1.453,3.6094c-0.969,0.9687 -2.172,1.4531 -3.61,1.4531c-0.687,0 -1.344,-0.1406 -1.969,-0.4219c-0.593,-0.25 -1.125,-0.5937 -1.593,-1.0312c-0.438,-0.4688 -0.797,-1 -1.078,-1.5938c-0.25,-0.625 -0.375,-1.2968 -0.375,-2.0156z"/>
  <rect stroke="#000" id="svg_2" height="396.58083" width="1584.8528" y="0" x="-1.17647" stroke-width="0" fill="none"/>
  <text font-style="normal" font-weight="normal" xml:space="preserve" text-anchor="start" font-family="'Montserrat Thin'" font-size="44" id="svg_3" y="51.71874" x="15.85936" stroke-width="0" stroke="#000" fill="#ffffff">Alex Golinescu</text>
  <rect id="svg_5" height="428.23529" width="1616.47056" y="-16.11765" x="-16.23529" stroke-width="0" stroke="#000" fill="#38ffb2"/>
  <text transform="matrix(1 0 0 1 0 0)" font-style="normal" font-weight="normal" xml:space="preserve" text-anchor="start" font-family="sans-serif" font-size="195" id="svg_6" y="265.64614" x="142.27066" stroke-width="0" stroke="#000" fill="#000000">Alex Golinescu</text>
 </g>
</svg>